<?xml version="1.0" standalone="no"?>
<!DOCTYPE svg PUBLIC "-//W3C//DTD SVG 20010904//EN"
 "http://www.w3.org/TR/2001/REC-SVG-20010904/DTD/svg10.dtd">
<svg version="1.0" xmlns="http://www.w3.org/2000/svg"
 width="950.000000pt" height="950.000000pt" viewBox="0 0 950.000000 950.000000"
 preserveAspectRatio="xMidYMid meet">
<metadata>
Created by potrace 1.11, written by Peter Selinger 2001-2013
</metadata>
<g transform="translate(0.000000,950.000000) scale(0.100000,-0.100000)"
fill="#000000" stroke="none">
<path d="M0 4750 l0 -4750 4750 0 4750 0 0 4750 0 4750 -4750 0 -4750 0 0
-4750z m6210 560 l0 -2340 1365 0 1365 0 0 -565 0 -565 -2045 0 -2045 0 0
2905 0 2905 680 0 680 0 0 -2340z m-4702 613 c20 -50 102 -295 102 -304 0 -5
-202 -8 -472 -7 l-472 3 -17 55 c-9 30 -33 106 -52 168 l-35 112 468 0 468 0
10 -27z m2692 22 c0 -2 -113 -368 -251 -812 -138 -445 -374 -1204 -524 -1688
-150 -484 -303 -977 -340 -1095 -37 -118 -88 -281 -113 -363 l-46 -147 -546 0
-547 0 -102 333 c-57 182 -251 809 -431 1392 -181 583 -373 1207 -429 1386
-55 179 -103 333 -107 342 -6 16 29 17 475 17 265 0 481 -2 481 -4 0 -2 45
-133 99 -292 55 -159 199 -581 321 -939 248 -726 239 -699 245 -694 3 4 520
1624 788 2472 l31 97 498 0 c274 0 498 -2 498 -5z"/>
</g>
</svg>
